<?xml version="1.0" encoding="UTF-8" standalone="no"?>
<svg
   version="1.1"
   viewBox="0 0 743.18744 310.64205"
   fill="none"
   stroke="none"
   stroke-linecap="square"
   stroke-miterlimit="10"
   id="svg1226"
   sodipodi:docname="spilling.svg"
   width="743.18744"
   height="310.64206"
   inkscape:version="1.1.2 (0a00cf5339, 2022-02-04)"
   xmlns:inkscape="http://www.inkscape.org/namespaces/inkscape"
   xmlns:sodipodi="http://sodipodi.sourceforge.net/DTD/sodipodi-0.dtd"
   xmlns="http://www.w3.org/2000/svg"
   xmlns:svg="http://www.w3.org/2000/svg">
  <defs
     id="defs1230" />
  <sodipodi:namedview
     id="namedview1228"
     pagecolor="#ffffff"
     bordercolor="#666666"
     borderopacity="1.0"
     inkscape:pageshadow="2"
     inkscape:pageopacity="0.0"
     inkscape:pagecheckerboard="0"
     showgrid="false"
     inkscape:zoom="1.3755437"
     inkscape:cx="337.32116"
     inkscape:cy="47.981027"
     inkscape:window-width="3440"
     inkscape:window-height="1371"
     inkscape:window-x="0"
     inkscape:window-y="0"
     inkscape:window-maximized="1"
     inkscape:current-layer="svg1226" />
  <clipPath
     id="g2ad46230a11_0_278.0">
    <path
       d="M 0,0 H 1280 V 720 H 0 Z"
       clip-rule="nonzero"
       id="path1132" />
  </clipPath>
  <path
     fill="#000000"
     fill-opacity="0"
     d="m 0,300.89358 h 743.18746 v 9.74849 H 0 Z"
     fill-rule="evenodd"
     id="path82"
     style="stroke-width:0.844441" />
  <g
     id="g5598"
     transform="translate(-9.1404744)">
    <path
       fill="#f72a30"
       d="m 68.182233,74.979194 v 0 c 0,-3.67848 2.98201,-6.66049 6.66052,-6.66049 h 26.641217 v 0 c 1.76646,0 3.4606,0.70173 4.70967,1.9508 1.24907,1.24909 1.95083,2.94321 1.95083,4.70969 V 262.12432 c 0,3.67851 -2.98203,6.6605 -6.6605,6.6605 H 74.842753 c -3.67851,0 -6.66052,-2.98199 -6.66052,-6.6605 z"
       fill-rule="evenodd"
       id="path1164"
       style="stroke-width:0.8" />
    <path
       stroke="#1a0404"
       stroke-width="0.8"
       stroke-linejoin="round"
       stroke-linecap="butt"
       d="m 68.228673,74.979194 v 0 c 0,-3.67848 2.982,-6.66049 6.66052,-6.66049 H 101.5304 v 0 c 1.76646,0 3.4606,0.70173 4.70967,1.9508 1.24907,1.24909 1.95083,2.94321 1.95083,4.70969 V 262.12432 c 0,3.67851 -2.98203,6.6605 -6.6605,6.6605 H 74.889193 c -3.67852,0 -6.66052,-2.98199 -6.66052,-6.6605 z"
       fill-rule="evenodd"
       id="path1166" />
    <path
       fill="#ffffff"
       d="m 96.443833,154.40647 -2.24082,1.96352 c -0.35185,0.30967 -0.84799,0.3875 -1.2874,0.21401 -0.67285,-0.26591 -1.36523,-0.47182 -2.06245,-0.61777 -0.46372,-0.0973 -0.83501,-0.43613 -0.95659,-0.89502 l -0.77832,-2.88286 c -0.18809,-0.69233 -0.71343,-1.14795 -1.2647,-1.09444 l -2.81152,0.28048 c -0.55128,0.0535 -0.97935,0.60478 -1.02637,1.31821 l -0.1978,2.98667 c -0.0292,0.47184 -0.32754,0.87881 -0.76207,1.06201 -0.65346,0.28213 -1.28579,0.61939 -1.89384,1.01015 -0.3956,0.25455 -0.89663,0.27564 -1.30361,0.0422 l -2.59424,-1.48842 c -0.62103,-0.35835 -1.31499,-0.30645 -1.66521,0.12159 l -1.79004,2.18729 c -0.35025,0.42802 -0.26592,1.11714 0.20915,1.65709 l 1.96841,2.24893 c 0.3097,0.35507 0.38914,0.85121 0.21565,1.28739 -0.26591,0.66964 -0.47185,1.35875 -0.61939,2.0543 -0.0973,0.46049 -0.4394,0.83179 -0.89501,0.95663 l -2.88775,0.77833 c -0.69236,0.18808 -1.14797,0.71339 -1.09445,1.2647 l 0.28049,2.81153 c 0.0535,0.55127 0.60478,0.97934 1.31821,1.02636 l 2.98018,0.1978 c 0.47182,0.0292 0.87881,0.33076 1.06689,0.76534 0.28213,0.65503 0.61775,1.29384 1.01175,1.90029 0.25458,0.39722 0.27563,0.89824 0.0406,1.30522 l -1.48682,2.58292 c -0.35832,0.621 -0.30644,1.31499 0.12161,1.66518 l 2.18728,1.79008 c 0.42808,0.3502 1.11719,0.26588 1.65708,-0.20918 l 2.23433,-1.95868 c 0.35508,-0.30968 0.85127,-0.3875 1.28901,-0.21401 0.67452,0.26912 1.37012,0.47669 2.07217,0.62587 0.4605,0.0989 0.83179,0.43941 0.95664,0.89502 l 0.77344,2.86992 c 0.18808,0.69234 0.71343,1.14796 1.2647,1.09444 l 2.81152,-0.28052 c 0.55132,-0.0535 0.97934,-0.60478 1.02637,-1.31821 l 0.19458,-2.95908 c 0.0308,-0.47183 0.33076,-0.87881 0.76533,-1.06529 0.66152,-0.28535 1.30522,-0.62422 1.91811,-1.0231 0.39561,-0.25453 0.89663,-0.27724 1.30362,-0.0438 l 2.56669,1.47554 c 0.621,0.3583 1.314987,0.30644 1.665187,-0.12164 l 1.79004,-2.1857 c 0.35024,-0.42964 0.26592,-1.11875 -0.20913,-1.65708 l -1.94898,-2.22783 c -0.30966,-0.35508 -0.389107,-0.85122 -0.21562,-1.2874 0.26914,-0.67934 0.47832,-1.37656 0.62749,-2.08188 0.0973,-0.46372 0.43618,-0.83502 0.89502,-0.95664 l 2.86343,-0.77338 c 0.69233,-0.18648 1.14795,-0.71343 1.09444,-1.2631 l -0.28047,-2.81317 c -0.0535,-0.55128 -0.60479,-0.97936 -1.31822,-1.02471 l -2.96719,-0.19619 c -0.47187,-0.0292 -0.87881,-0.32754 -1.063667,-0.76211 -0.28374,-0.65826 -0.62261,-1.29874 -1.01987,-1.91001 -0.25782,-0.39562 -0.27891,-0.89663 -0.0422,-1.3069 l 1.480317,-2.57641 c 0.35835,-0.621 0.30645,-1.3166 -0.12159,-1.66519 l -2.187297,-1.79004 c -0.42802,-0.34863 -1.11714,-0.26103 -1.65708,0.21079 z m -1.43496,6.8456 c 3.65469,3.4066 4.21568,9.07671 1.302,13.1335 -3.52495,4.90962 -10.5538,5.60683 -14.97539,1.48359 -3.65307,-3.40659 -4.21409,-9.07509 -1.302,-13.13349 3.52656,-4.90801 10.55543,-5.60523 14.97539,-1.4836 z"
       fill-rule="evenodd"
       id="path1168"
       style="stroke-width:0.8" />
    <path
       stroke="#1a0404"
       stroke-width="0.8"
       stroke-linejoin="round"
       stroke-linecap="butt"
       d="m 96.443833,154.40647 -2.24082,1.96352 c -0.35185,0.30967 -0.84799,0.3875 -1.2874,0.21401 -0.67285,-0.26591 -1.36523,-0.47182 -2.06245,-0.61777 -0.46372,-0.0973 -0.83501,-0.43613 -0.95659,-0.89502 l -0.77832,-2.88286 c -0.18809,-0.69233 -0.71343,-1.14795 -1.2647,-1.09444 l -2.81152,0.28048 c -0.55128,0.0535 -0.97935,0.60478 -1.02637,1.31821 l -0.1978,2.98667 c -0.0292,0.47184 -0.32754,0.87881 -0.76207,1.06201 -0.65346,0.28213 -1.28579,0.61939 -1.89384,1.01015 -0.3956,0.25455 -0.89663,0.27564 -1.30361,0.0422 l -2.59424,-1.48842 c -0.62103,-0.35835 -1.31499,-0.30645 -1.66521,0.12159 l -1.79004,2.18729 c -0.35025,0.42802 -0.26592,1.11714 0.20915,1.65709 l 1.96841,2.24893 c 0.3097,0.35507 0.38914,0.85121 0.21565,1.28739 -0.26591,0.66964 -0.47185,1.35875 -0.61939,2.0543 -0.0973,0.46049 -0.4394,0.83179 -0.89501,0.95663 l -2.88775,0.77833 c -0.69236,0.18808 -1.14797,0.71339 -1.09445,1.2647 l 0.28049,2.81153 c 0.0535,0.55127 0.60478,0.97934 1.31821,1.02636 l 2.98018,0.1978 c 0.47182,0.0292 0.87881,0.33076 1.06689,0.76534 0.28213,0.65503 0.61775,1.29384 1.01175,1.90029 0.25458,0.39722 0.27563,0.89824 0.0406,1.30522 l -1.48682,2.58292 c -0.35832,0.621 -0.30644,1.31499 0.12161,1.66518 l 2.18728,1.79008 c 0.42808,0.3502 1.11719,0.26588 1.65708,-0.20918 l 2.23433,-1.95868 c 0.35508,-0.30968 0.85127,-0.3875 1.28901,-0.21401 0.67452,0.26912 1.37012,0.47669 2.07217,0.62587 0.4605,0.0989 0.83179,0.43941 0.95664,0.89502 l 0.77344,2.86992 c 0.18808,0.69234 0.71343,1.14796 1.2647,1.09444 l 2.81152,-0.28052 c 0.55132,-0.0535 0.97934,-0.60478 1.02637,-1.31821 l 0.19458,-2.95908 c 0.0308,-0.47183 0.33076,-0.87881 0.76533,-1.06529 0.66152,-0.28535 1.30522,-0.62422 1.91811,-1.0231 0.39561,-0.25453 0.89663,-0.27724 1.30362,-0.0438 l 2.56669,1.47554 c 0.621,0.3583 1.314987,0.30644 1.665187,-0.12164 l 1.79004,-2.1857 c 0.35024,-0.42964 0.26592,-1.11875 -0.20913,-1.65708 l -1.94898,-2.22783 c -0.30966,-0.35508 -0.389107,-0.85122 -0.21562,-1.2874 0.26914,-0.67934 0.47832,-1.37656 0.62749,-2.08188 0.0973,-0.46372 0.43618,-0.83502 0.89502,-0.95664 l 2.86343,-0.77338 c 0.69233,-0.18648 1.14795,-0.71343 1.09444,-1.2631 l -0.28047,-2.81317 c -0.0535,-0.55128 -0.60479,-0.97936 -1.31822,-1.02471 l -2.96719,-0.19619 c -0.47187,-0.0292 -0.87881,-0.32754 -1.063667,-0.76211 -0.28374,-0.65826 -0.62261,-1.29874 -1.01987,-1.91001 -0.25782,-0.39562 -0.27891,-0.89663 -0.0422,-1.3069 l 1.480317,-2.57641 c 0.35835,-0.621 0.30645,-1.3166 -0.12159,-1.66519 l -2.187297,-1.79004 c -0.42802,-0.34863 -1.11714,-0.26103 -1.65708,0.21079 z m -1.43496,6.8456 c 3.65469,3.4066 4.21568,9.07671 1.302,13.1335 -3.52495,4.90962 -10.5538,5.60683 -14.97539,1.48359 -3.65307,-3.40659 -4.21409,-9.07509 -1.302,-13.13349 3.52656,-4.90801 10.55543,-5.60523 14.97539,-1.4836 z"
       fill-rule="evenodd"
       id="path1170" />
    <path
       fill="#f72a30"
       d="m 251.06096,124.24953 v 0 c 0,-3.67849 2.98203,-6.6605 6.66049,-6.6605 h 26.64122 v 0 c 1.7665,0 3.46059,0.70173 4.70971,1.9508 1.24907,1.2491 1.95079,2.94322 1.95079,4.7097 v 89.60814 c 0,3.67851 -2.98199,6.66049 -6.6605,6.66049 h -26.64122 c -3.67846,0 -6.66049,-2.98198 -6.66049,-6.66049 z"
       fill-rule="evenodd"
       id="path1176"
       style="stroke-width:0.8" />
    <path
       fill="#ffffff"
       d="m 257.49564,176.06828 v 0 c 0,-1.36681 6.06474,-2.47487 13.54605,-2.47487 7.48129,0 13.54604,1.10806 13.54604,2.47487 v 9.89946 c 0,1.36685 -6.06475,2.47486 -13.54604,2.47486 -7.48131,0 -13.54605,-1.10801 -13.54605,-2.47486 z"
       fill-rule="evenodd"
       id="path1184"
       style="stroke-width:0.8" />
    <path
       fill="#000000"
       fill-opacity="0"
       d="m 284.58773,176.06828 v 0 c 0,1.36683 -6.06475,2.47489 -13.54605,2.47489 -7.4813,0 -13.54604,-1.10806 -13.54604,-2.47489"
       fill-rule="evenodd"
       id="path1186"
       style="stroke-width:0.8" />
    <path
       fill="#000000"
       fill-opacity="0"
       d="m 257.49564,176.06828 v 0 c 0,-1.36681 6.06474,-2.47487 13.54605,-2.47487 7.48129,0 13.54604,1.10806 13.54604,2.47487 v 9.89946 c 0,1.36685 -6.06475,2.47486 -13.54604,2.47486 -7.48131,0 -13.54605,-1.10801 -13.54605,-2.47486 z"
       fill-rule="evenodd"
       id="path1188"
       style="stroke-width:0.8" />
    <path
       stroke="#1a0404"
       stroke-width="0.8"
       stroke-linejoin="round"
       stroke-linecap="butt"
       d="m 284.58773,176.06828 v 0 c 0,1.36683 -6.06475,2.47489 -13.54605,2.47489 -7.4813,0 -13.54604,-1.10806 -13.54604,-2.47489"
       fill-rule="evenodd"
       id="path1190" />
    <path
       stroke="#1a0404"
       stroke-width="0.8"
       stroke-linejoin="round"
       stroke-linecap="butt"
       d="m 257.49564,176.06828 v 0 c 0,-1.36681 6.06474,-2.47487 13.54605,-2.47487 7.48129,0 13.54604,1.10806 13.54604,2.47487 v 9.89946 c 0,1.36685 -6.06475,2.47486 -13.54604,2.47486 -7.48131,0 -13.54605,-1.10801 -13.54605,-2.47486 z"
       fill-rule="evenodd"
       id="path1192" />
    <path
       fill="#ffffff"
       d="m 257.49564,164.10391 v 0 c 0,-1.36685 6.06474,-2.47491 13.54605,-2.47491 7.48129,0 13.54604,1.10806 13.54604,2.47491 v 9.89941 c 0,1.36685 -6.06475,2.47485 -13.54604,2.47485 -7.48131,0 -13.54605,-1.108 -13.54605,-2.47485 z"
       fill-rule="evenodd"
       id="path1194"
       style="stroke-width:0.8" />
    <path
       fill="#000000"
       fill-opacity="0"
       d="m 284.58773,164.10391 v 0 c 0,1.3668 -6.06475,2.47485 -13.54605,2.47485 -7.4813,0 -13.54604,-1.10805 -13.54604,-2.47485"
       fill-rule="evenodd"
       id="path1196"
       style="stroke-width:0.8" />
    <path
       fill="#000000"
       fill-opacity="0"
       d="m 257.49564,164.10391 v 0 c 0,-1.36685 6.06474,-2.47491 13.54605,-2.47491 7.48129,0 13.54604,1.10806 13.54604,2.47491 v 9.89941 c 0,1.36685 -6.06475,2.47485 -13.54604,2.47485 -7.48131,0 -13.54605,-1.108 -13.54605,-2.47485 z"
       fill-rule="evenodd"
       id="path1198"
       style="stroke-width:0.8" />
    <path
       stroke="#1a0404"
       stroke-width="0.8"
       stroke-linejoin="round"
       stroke-linecap="butt"
       d="m 284.58773,164.10391 v 0 c 0,1.3668 -6.06475,2.47485 -13.54605,2.47485 -7.4813,0 -13.54604,-1.10805 -13.54604,-2.47485"
       fill-rule="evenodd"
       id="path1200" />
    <path
       stroke="#1a0404"
       stroke-width="0.8"
       stroke-linejoin="round"
       stroke-linecap="butt"
       d="m 257.49564,164.10391 v 0 c 0,-1.36685 6.06474,-2.47491 13.54605,-2.47491 7.48129,0 13.54604,1.10806 13.54604,2.47491 v 9.89941 c 0,1.36685 -6.06475,2.47485 -13.54604,2.47485 -7.48131,0 -13.54605,-1.108 -13.54605,-2.47485 z"
       fill-rule="evenodd"
       id="path1202" />
    <path
       fill="#ffffff"
       d="m 257.49564,152.13951 v 0 c 0,-1.36685 6.06474,-2.47486 13.54605,-2.47486 7.48129,0 13.54604,1.10801 13.54604,2.47486 v 9.89941 c 0,1.36685 -6.06475,2.47486 -13.54604,2.47486 -7.48131,0 -13.54605,-1.10801 -13.54605,-2.47486 z"
       fill-rule="evenodd"
       id="path1204"
       style="stroke-width:0.8" />
    <path
       fill="#000000"
       fill-opacity="0"
       d="m 284.58773,152.13951 v 0 c 0,1.36681 -6.06475,2.47485 -13.54605,2.47485 -7.4813,0 -13.54604,-1.10804 -13.54604,-2.47485"
       fill-rule="evenodd"
       id="path1206"
       style="stroke-width:0.8" />
    <path
       fill="#000000"
       fill-opacity="0"
       d="m 257.49564,152.13951 v 0 c 0,-1.36685 6.06474,-2.47486 13.54605,-2.47486 7.48129,0 13.54604,1.10801 13.54604,2.47486 v 9.89941 c 0,1.36685 -6.06475,2.47486 -13.54604,2.47486 -7.48131,0 -13.54605,-1.10801 -13.54605,-2.47486 z"
       fill-rule="evenodd"
       id="path1208"
       style="stroke-width:0.8" />
    <path
       stroke="#1a0404"
       stroke-width="0.8"
       stroke-linejoin="round"
       stroke-linecap="butt"
       d="m 284.58773,152.13951 v 0 c 0,1.36681 -6.06475,2.47485 -13.54605,2.47485 -7.4813,0 -13.54604,-1.10804 -13.54604,-2.47485"
       fill-rule="evenodd"
       id="path1210" />
    <path
       stroke="#1a0404"
       stroke-width="0.8"
       stroke-linejoin="round"
       stroke-linecap="butt"
       d="m 257.49564,152.13951 v 0 c 0,-1.36685 6.06474,-2.47486 13.54605,-2.47486 7.48129,0 13.54604,1.10801 13.54604,2.47486 v 9.89941 c 0,1.36685 -6.06475,2.47486 -13.54604,2.47486 -7.48131,0 -13.54605,-1.10801 -13.54605,-2.47486 z"
       fill-rule="evenodd"
       id="path1212" />
    <path
       fill="#000000"
       fill-opacity="0"
       d="m 108.14448,168.55175 142.9165,0.50395"
       fill-rule="evenodd"
       id="path1214"
       style="stroke-width:0.8" />
    <path
       stroke="#1a0404"
       stroke-width="2.4"
       stroke-linejoin="round"
       stroke-linecap="butt"
       d="m 108.14448,168.55175 128.5166,0.45317"
       fill-rule="evenodd"
       id="path1216" />
    <path
       fill="#1a0404"
       stroke="#1a0404"
       stroke-width="2.4"
       stroke-linecap="butt"
       d="m 236.64712,172.96903 10.90532,-3.92573 -10.87739,-4.00255 z"
       fill-rule="evenodd"
       id="path1218" />
    <path
       fill="#000000"
       fill-opacity="0"
       d="m 151.45784,111.5187 h 56.28974 v 62.05982 h -56.28974 z"
       fill-rule="evenodd"
       id="path1220"
       style="stroke-width:0.8" />
    <path
       fill="#f72a30"
       d="m 179.5996,137.93268 6.18749,-6.18749 3.51251,3.4875 -6.18751,6.18751 6.18751,6.1875 -3.51251,3.50002 -6.18749,-6.18752 -6.175,6.18752 -3.51251,-3.50002 6.18751,-6.1875 -6.18751,-6.18751 3.51251,-3.48749 z"
       fill-rule="nonzero"
       id="path1222"
       style="stroke-width:0.8" />
    <path
       stroke="#1a0404"
       stroke-width="0.8"
       stroke-linejoin="round"
       stroke-linecap="butt"
       d="m 251.06096,124.24953 v 0 c 0,-3.67849 2.98203,-6.6605 6.66049,-6.6605 h 26.64122 v 0 c 1.7665,0 3.46059,0.70173 4.70971,1.9508 1.24907,1.2491 1.95079,2.94322 1.95079,4.7097 v 89.60814 c 0,3.67851 -2.98199,6.66049 -6.6605,6.66049 h -26.64122 c -3.67846,0 -6.66049,-2.98198 -6.66049,-6.66049 z"
       fill-rule="evenodd"
       id="path1178" />
  </g>
  <g
     id="g5638"
     transform="translate(-9.1404744)">
    <path
       fill="#f72a30"
       d="m 466.65782,74.399624 v 0 c 0,-3.67849 2.98201,-6.6605 6.66052,-6.6605 h 26.64122 v 0 c 1.76645,0 3.46059,0.70173 4.70966,1.9508 1.24907,1.2491 1.95083,2.94322 1.95083,4.7097 v 32.285306 c 0,3.67849 -2.98203,6.6605 -6.66049,6.6605 h -26.64122 c -3.67851,0 -6.66052,-2.98201 -6.66052,-6.6605 z"
       fill-rule="evenodd"
       id="path42"
       style="stroke-width:0.8" />
    <path
       stroke="#1a0404"
       stroke-width="0.8"
       stroke-linejoin="round"
       stroke-linecap="butt"
       d="m 466.65782,74.399624 v 0 c 0,-3.67849 2.98201,-6.6605 6.66052,-6.6605 h 26.64122 v 0 c 1.76645,0 3.46059,0.70173 4.70966,1.9508 1.24907,1.2491 1.95083,2.94322 1.95083,4.7097 v 32.285306 c 0,3.67849 -2.98203,6.6605 -6.66049,6.6605 h -26.64122 c -3.67851,0 -6.66052,-2.98201 -6.66052,-6.6605 z"
       fill-rule="evenodd"
       id="path44" />
    <path
       fill="#f72a30"
       d="m 466.65782,126.40593 v 0 c 0,-3.67849 2.98201,-6.66049 6.66052,-6.66049 h 26.64122 v 0 c 1.76645,0 3.46059,0.70171 4.70966,1.95079 1.24907,1.24909 1.95083,2.94321 1.95083,4.70969 v 32.28528 c 0,3.67851 -2.98203,6.66055 -6.66049,6.66055 h -26.64122 c -3.67851,0 -6.66052,-2.98204 -6.66052,-6.66055 z"
       fill-rule="evenodd"
       id="path46"
       style="stroke-width:0.8" />
    <path
       stroke="#1a0404"
       stroke-width="0.8"
       stroke-linejoin="round"
       stroke-linecap="butt"
       d="m 466.65782,126.40593 v 0 c 0,-3.67849 2.98201,-6.66049 6.66052,-6.66049 h 26.64122 v 0 c 1.76645,0 3.46059,0.70171 4.70966,1.95079 1.24907,1.24909 1.95083,2.94321 1.95083,4.70969 v 32.28528 c 0,3.67851 -2.98203,6.66055 -6.66049,6.66055 h -26.64122 c -3.67851,0 -6.66052,-2.98204 -6.66052,-6.66055 z"
       fill-rule="evenodd"
       id="path48" />
    <path
       fill="#f72a30"
       d="m 466.65782,178.41226 v 0 c 0,-3.6785 2.98201,-6.6605 6.66052,-6.6605 h 26.64122 v 0 c 1.76645,0 3.46059,0.70171 4.70966,1.95078 1.24907,1.24912 1.95083,2.94321 1.95083,4.70972 v 32.28525 c 0,3.67852 -2.98203,6.66055 -6.66049,6.66055 h -26.64122 c -3.67851,0 -6.66052,-2.98203 -6.66052,-6.66055 z"
       fill-rule="evenodd"
       id="path50"
       style="stroke-width:0.8" />
    <path
       stroke="#1a0404"
       stroke-width="0.8"
       stroke-linejoin="round"
       stroke-linecap="butt"
       d="m 466.65782,178.41226 v 0 c 0,-3.6785 2.98201,-6.6605 6.66052,-6.6605 h 26.64122 v 0 c 1.76645,0 3.46059,0.70171 4.70966,1.95078 1.24907,1.24912 1.95083,2.94321 1.95083,4.70972 v 32.28525 c 0,3.67852 -2.98203,6.66055 -6.66049,6.66055 h -26.64122 c -3.67851,0 -6.66052,-2.98203 -6.66052,-6.66055 z"
       fill-rule="evenodd"
       id="path52" />
    <path
       fill="#f72a30"
       d="m 466.65782,230.41855 v 0 c 0,-3.67851 2.98201,-6.6605 6.66052,-6.6605 h 26.64122 v 0 c 1.76645,0 3.46059,0.70171 4.70966,1.95078 1.24907,1.24913 1.95083,2.94322 1.95083,4.70972 v 32.28526 c 0,3.67851 -2.98203,6.66055 -6.66049,6.66055 h -26.64122 c -3.67851,0 -6.66052,-2.98204 -6.66052,-6.66055 z"
       fill-rule="evenodd"
       id="path54"
       style="stroke-width:0.8" />
    <path
       stroke="#1a0404"
       stroke-width="0.8"
       stroke-linejoin="round"
       stroke-linecap="butt"
       d="m 466.65782,230.41855 v 0 c 0,-3.67851 2.98201,-6.6605 6.66052,-6.6605 h 26.64122 v 0 c 1.76645,0 3.46059,0.70171 4.70966,1.95078 1.24907,1.24913 1.95083,2.94322 1.95083,4.70972 v 32.28526 c 0,3.67851 -2.98203,6.66055 -6.66049,6.66055 h -26.64122 c -3.67851,0 -6.66052,-2.98204 -6.66052,-6.66055 z"
       fill-rule="evenodd"
       id="path56" />
    <path
       fill="#ffffff"
       d="m 494.91942,76.396944 -2.24082,1.96352 c -0.35185,0.30969 -0.84799,0.38752 -1.2874,0.21404 -0.67285,-0.26592 -1.36523,-0.47183 -2.06245,-0.61775 -0.46372,-0.0973 -0.83501,-0.43618 -0.95659,-0.89505 l -0.77832,-2.88285 c -0.18809,-0.69236 -0.71343,-1.14798 -1.2647,-1.09447 l -2.81153,0.2805 c -0.55127,0.0535 -0.97934,0.60478 -1.02636,1.31822 l -0.1978,2.98664 c -0.0292,0.47185 -0.32754,0.8788 -0.76207,1.06204 -0.65346,0.28212 -1.28579,0.61938 -1.89385,1.01015 -0.3956,0.25454 -0.89662,0.27564 -1.3036,0.0422 l -2.59424,-1.48846 c -0.62103,-0.35832 -1.315,-0.30644 -1.66521,0.12161 l -1.79004,2.18728 c -0.35025,0.42808 -0.26592,1.11716 0.20915,1.65711 l 1.96841,2.2489 c 0.30969,0.35508 0.38913,0.85124 0.21565,1.2874 -0.26592,0.66966 -0.47185,1.35874 -0.61939,2.05434 -0.0973,0.46048 -0.4394,0.8318 -0.89501,0.95662 l -2.88775,0.7783 c -0.69236,0.18808 -1.14797,0.71343 -1.09445,1.26469 l 0.28048,2.81155 c 0.0535,0.55128 0.60479,0.97932 1.31822,1.02635 l 2.98018,0.19782 c 0.47182,0.0292 0.8788,0.33076 1.06689,0.76531 0.28213,0.65505 0.61775,1.2939 1.01175,1.90029 0.25458,0.39724 0.27563,0.89827 0.0406,1.30525 l -1.48682,2.582906 c -0.35832,0.621 -0.30644,1.31497 0.12161,1.66521 l 2.18728,1.79004 c 0.42808,0.35022 1.11719,0.26592 1.65708,-0.20918 l 2.23433,-1.95867 c 0.35508,-0.30969 0.85127,-0.38749 1.28901,-0.21401 0.67451,0.26914 1.37011,0.47668 2.07217,0.62586 0.4605,0.0989 0.83178,0.4394 0.95664,0.89502 l 0.77344,2.86992 c 0.18808,0.69233 0.71342,1.14796 1.2647,1.09445 l 2.81152,-0.28051 c 0.55132,-0.0535 0.97934,-0.60478 1.02636,-1.31822 l 0.19459,-2.95908 c 0.0308,-0.47182 0.33076,-0.8788 0.76533,-1.06525 0.66152,-0.28538 1.30522,-0.62427 1.91811,-1.02312 0.39561,-0.25457 0.89663,-0.27727 1.30361,-0.0438 l 2.5667,1.47549 c 0.621,0.35832 1.31499,0.30644 1.66519,-0.12161 l 1.79004,-2.18567 c 0.35024,-0.42969 0.26591,-1.118766 -0.20913,-1.657106 l -1.94898,-2.22781 c -0.30966,-0.35509 -0.38911,-0.85124 -0.21562,-1.28742 0.26914,-0.67937 0.47832,-1.37656 0.62749,-2.08189 0.0973,-0.46372 0.43618,-0.83503 0.89502,-0.95664 l 2.86342,-0.77341 c 0.69234,-0.18648 1.14795,-0.71343 1.09444,-1.26308 l -0.28047,-2.81316 c -0.0535,-0.5513 -0.60478,-0.97935 -1.31822,-1.02473 l -2.96718,-0.19619 c -0.47187,-0.0292 -0.87881,-0.32755 -1.06367,-0.76207 -0.28375,-0.65829 -0.62261,-1.29877 -1.01987,-1.91003 -0.25782,-0.39563 -0.27891,-0.89666 -0.0422,-1.30686 l 1.48032,-2.57645 c 0.35835,-0.62099 0.30644,-1.3166 -0.12159,-1.66518 l -2.1873,-1.79006 c -0.42803,-0.34861 -1.11714,-0.26104 -1.65708,0.21079 z m -1.43496,6.84563 c 3.65469,3.40659 4.21567,9.07668 1.302,13.13347 -3.52495,4.909636 -10.55381,5.606856 -14.97539,1.48359 -3.65307,-3.40659 -4.21409,-9.07507 -1.302,-13.13347 3.52656,-4.90803 10.55542,-5.60525 14.97539,-1.48359 z"
       fill-rule="evenodd"
       id="path58"
       style="stroke-width:0.8" />
    <path
       stroke="#1a0404"
       stroke-width="0.8"
       stroke-linejoin="round"
       stroke-linecap="butt"
       d="m 494.91942,76.396944 -2.24082,1.96352 c -0.35185,0.30969 -0.84799,0.38752 -1.2874,0.21404 -0.67285,-0.26592 -1.36523,-0.47183 -2.06245,-0.61775 -0.46372,-0.0973 -0.83501,-0.43618 -0.95659,-0.89505 l -0.77832,-2.88285 c -0.18809,-0.69236 -0.71343,-1.14798 -1.2647,-1.09447 l -2.81153,0.2805 c -0.55127,0.0535 -0.97934,0.60478 -1.02636,1.31822 l -0.1978,2.98664 c -0.0292,0.47185 -0.32754,0.8788 -0.76207,1.06204 -0.65346,0.28212 -1.28579,0.61938 -1.89385,1.01015 -0.3956,0.25454 -0.89662,0.27564 -1.3036,0.0422 l -2.59424,-1.48846 c -0.62103,-0.35832 -1.315,-0.30644 -1.66521,0.12161 l -1.79004,2.18728 c -0.35025,0.42808 -0.26592,1.11716 0.20915,1.65711 l 1.96841,2.2489 c 0.30969,0.35508 0.38913,0.85124 0.21565,1.2874 -0.26592,0.66966 -0.47185,1.35874 -0.61939,2.05434 -0.0973,0.46048 -0.4394,0.8318 -0.89501,0.95662 l -2.88775,0.7783 c -0.69236,0.18808 -1.14797,0.71343 -1.09445,1.26469 l 0.28048,2.81155 c 0.0535,0.55128 0.60479,0.97932 1.31822,1.02635 l 2.98018,0.19782 c 0.47182,0.0292 0.8788,0.33076 1.06689,0.76531 0.28213,0.65505 0.61775,1.2939 1.01175,1.90029 0.25458,0.39724 0.27563,0.89827 0.0406,1.30525 l -1.48682,2.582906 c -0.35832,0.621 -0.30644,1.31497 0.12161,1.66521 l 2.18728,1.79004 c 0.42808,0.35022 1.11719,0.26592 1.65708,-0.20918 l 2.23433,-1.95867 c 0.35508,-0.30969 0.85127,-0.38749 1.28901,-0.21401 0.67451,0.26914 1.37011,0.47668 2.07217,0.62586 0.4605,0.0989 0.83178,0.4394 0.95664,0.89502 l 0.77344,2.86992 c 0.18808,0.69233 0.71342,1.14796 1.2647,1.09445 l 2.81152,-0.28051 c 0.55132,-0.0535 0.97934,-0.60478 1.02636,-1.31822 l 0.19459,-2.95908 c 0.0308,-0.47182 0.33076,-0.8788 0.76533,-1.06525 0.66152,-0.28538 1.30522,-0.62427 1.91811,-1.02312 0.39561,-0.25457 0.89663,-0.27727 1.30361,-0.0438 l 2.5667,1.47549 c 0.621,0.35832 1.31499,0.30644 1.66519,-0.12161 l 1.79004,-2.18567 c 0.35024,-0.42969 0.26591,-1.118766 -0.20913,-1.657106 l -1.94898,-2.22781 c -0.30966,-0.35509 -0.38911,-0.85124 -0.21562,-1.28742 0.26914,-0.67937 0.47832,-1.37656 0.62749,-2.08189 0.0973,-0.46372 0.43618,-0.83503 0.89502,-0.95664 l 2.86342,-0.77341 c 0.69234,-0.18648 1.14795,-0.71343 1.09444,-1.26308 l -0.28047,-2.81316 c -0.0535,-0.5513 -0.60478,-0.97935 -1.31822,-1.02473 l -2.96718,-0.19619 c -0.47187,-0.0292 -0.87881,-0.32755 -1.06367,-0.76207 -0.28375,-0.65829 -0.62261,-1.29877 -1.01987,-1.91003 -0.25782,-0.39563 -0.27891,-0.89666 -0.0422,-1.30686 l 1.48032,-2.57645 c 0.35835,-0.62099 0.30644,-1.3166 -0.12159,-1.66518 l -2.1873,-1.79006 c -0.42803,-0.34861 -1.11714,-0.26104 -1.65708,0.21079 z m -1.43496,6.84563 c 3.65469,3.40659 4.21567,9.07668 1.302,13.13347 -3.52495,4.909636 -10.55381,5.606856 -14.97539,1.48359 -3.65307,-3.40659 -4.21409,-9.07507 -1.302,-13.13347 3.52656,-4.90803 10.55542,-5.60525 14.97539,-1.48359 z"
       fill-rule="evenodd"
       id="path60" />
    <path
       fill="#ffffff"
       d="m 494.91942,128.40324 -2.24082,1.96353 c -0.35185,0.30968 -0.84799,0.38751 -1.2874,0.21403 -0.67285,-0.26591 -1.36523,-0.47182 -2.06245,-0.61774 -0.46372,-0.0973 -0.83501,-0.43618 -0.95659,-0.89505 l -0.77832,-2.88285 c -0.18809,-0.69236 -0.71343,-1.14798 -1.2647,-1.09447 l -2.81153,0.2805 c -0.55127,0.0535 -0.97934,0.60478 -1.02636,1.31821 l -0.1978,2.98664 c -0.0292,0.47185 -0.32754,0.8788 -0.76207,1.06203 -0.65346,0.28213 -1.28579,0.6194 -1.89385,1.01017 -0.3956,0.25454 -0.89662,0.27564 -1.3036,0.0422 l -2.59424,-1.48846 c -0.62103,-0.35832 -1.315,-0.30644 -1.66521,0.12161 l -1.79004,2.18728 c -0.35025,0.42808 -0.26592,1.11716 0.20915,1.6571 l 1.96841,2.24891 c 0.30969,0.35507 0.38913,0.85123 0.21565,1.28739 -0.26592,0.66965 -0.47185,1.35875 -0.61939,2.05434 -0.0973,0.46047 -0.4394,0.8318 -0.89501,0.95664 l -2.88775,0.77827 c -0.69236,0.18809 -1.14797,0.71343 -1.09445,1.2647 l 0.28048,2.81155 c 0.0535,0.55127 0.60479,0.97932 1.31822,1.02634 l 2.98018,0.19784 c 0.47182,0.0292 0.8788,0.33076 1.06689,0.76531 0.28213,0.65504 0.61775,1.29387 1.01175,1.9003 0.25458,0.39722 0.27563,0.89825 0.0406,1.30523 l -1.48682,2.58291 c -0.35832,0.621 -0.30644,1.31499 0.12161,1.66518 l 2.18728,1.79004 c 0.42808,0.35025 1.11719,0.26592 1.65708,-0.20913 l 2.23433,-1.95868 c 0.35508,-0.30968 0.85127,-0.3875 1.28901,-0.21401 0.67451,0.26913 1.37011,0.47669 2.07217,0.62587 0.4605,0.0989 0.83178,0.43941 0.95664,0.89502 l 0.77344,2.86987 c 0.18808,0.69238 0.71342,1.148 1.2647,1.09448 l 2.81152,-0.28051 c 0.55132,-0.0535 0.97934,-0.60479 1.02636,-1.31822 l 0.19459,-2.95908 c 0.0308,-0.47182 0.33076,-0.8788 0.76533,-1.06528 0.66152,-0.28535 1.30522,-0.62422 1.91811,-1.0231 0.39561,-0.25459 0.89663,-0.27724 1.30361,-0.0438 l 2.5667,1.47549 c 0.621,0.35835 1.31499,0.30645 1.66519,-0.12157 l 1.79004,-2.1857 c 0.35024,-0.42965 0.26591,-1.11874 -0.20913,-1.65709 l -1.94898,-2.22783 c -0.30966,-0.35507 -0.38911,-0.85122 -0.21562,-1.2874 0.26914,-0.67937 0.47832,-1.37656 0.62749,-2.08188 0.0973,-0.46372 0.43618,-0.83503 0.89502,-0.95664 l 2.86342,-0.77341 c 0.69234,-0.18648 1.14795,-0.71343 1.09444,-1.26308 l -0.28047,-2.81317 c -0.0535,-0.5513 -0.60478,-0.97935 -1.31822,-1.02473 l -2.96718,-0.19619 c -0.47187,-0.0292 -0.87881,-0.32755 -1.06367,-0.76207 -0.28375,-0.65829 -0.62261,-1.29875 -1.01987,-1.91003 -0.25782,-0.39563 -0.27891,-0.89666 -0.0422,-1.30686 l 1.48032,-2.57643 c 0.35835,-0.62101 0.30644,-1.3166 -0.12159,-1.66519 l -2.1873,-1.79007 c -0.42803,-0.34861 -1.11714,-0.26103 -1.65708,0.2108 z m -1.43496,6.84564 c 3.65469,3.40658 4.21567,9.07668 1.302,13.13348 -3.52495,4.90962 -10.55381,5.60683 -14.97539,1.48359 -3.65307,-3.40661 -4.21409,-9.07509 -1.302,-13.13349 3.52656,-4.90802 10.55542,-5.60525 14.97539,-1.48358 z"
       fill-rule="evenodd"
       id="path62"
       style="stroke-width:0.8" />
    <path
       stroke="#1a0404"
       stroke-width="0.8"
       stroke-linejoin="round"
       stroke-linecap="butt"
       d="m 494.91942,128.40324 -2.24082,1.96353 c -0.35185,0.30968 -0.84799,0.38751 -1.2874,0.21403 -0.67285,-0.26591 -1.36523,-0.47182 -2.06245,-0.61774 -0.46372,-0.0973 -0.83501,-0.43618 -0.95659,-0.89505 l -0.77832,-2.88285 c -0.18809,-0.69236 -0.71343,-1.14798 -1.2647,-1.09447 l -2.81153,0.2805 c -0.55127,0.0535 -0.97934,0.60478 -1.02636,1.31821 l -0.1978,2.98664 c -0.0292,0.47185 -0.32754,0.8788 -0.76207,1.06203 -0.65346,0.28213 -1.28579,0.6194 -1.89385,1.01017 -0.3956,0.25454 -0.89662,0.27564 -1.3036,0.0422 l -2.59424,-1.48846 c -0.62103,-0.35832 -1.315,-0.30644 -1.66521,0.12161 l -1.79004,2.18728 c -0.35025,0.42808 -0.26592,1.11716 0.20915,1.6571 l 1.96841,2.24891 c 0.30969,0.35507 0.38913,0.85123 0.21565,1.28739 -0.26592,0.66965 -0.47185,1.35875 -0.61939,2.05434 -0.0973,0.46047 -0.4394,0.8318 -0.89501,0.95664 l -2.88775,0.77827 c -0.69236,0.18809 -1.14797,0.71343 -1.09445,1.2647 l 0.28048,2.81155 c 0.0535,0.55127 0.60479,0.97932 1.31822,1.02634 l 2.98018,0.19784 c 0.47182,0.0292 0.8788,0.33076 1.06689,0.76531 0.28213,0.65504 0.61775,1.29387 1.01175,1.9003 0.25458,0.39722 0.27563,0.89825 0.0406,1.30523 l -1.48682,2.58291 c -0.35832,0.621 -0.30644,1.31499 0.12161,1.66518 l 2.18728,1.79004 c 0.42808,0.35025 1.11719,0.26592 1.65708,-0.20913 l 2.23433,-1.95868 c 0.35508,-0.30968 0.85127,-0.3875 1.28901,-0.21401 0.67451,0.26913 1.37011,0.47669 2.07217,0.62587 0.4605,0.0989 0.83178,0.43941 0.95664,0.89502 l 0.77344,2.86987 c 0.18808,0.69238 0.71342,1.148 1.2647,1.09448 l 2.81152,-0.28051 c 0.55132,-0.0535 0.97934,-0.60479 1.02636,-1.31822 l 0.19459,-2.95908 c 0.0308,-0.47182 0.33076,-0.8788 0.76533,-1.06528 0.66152,-0.28535 1.30522,-0.62422 1.91811,-1.0231 0.39561,-0.25459 0.89663,-0.27724 1.30361,-0.0438 l 2.5667,1.47549 c 0.621,0.35835 1.31499,0.30645 1.66519,-0.12157 l 1.79004,-2.1857 c 0.35024,-0.42965 0.26591,-1.11874 -0.20913,-1.65709 l -1.94898,-2.22783 c -0.30966,-0.35507 -0.38911,-0.85122 -0.21562,-1.2874 0.26914,-0.67937 0.47832,-1.37656 0.62749,-2.08188 0.0973,-0.46372 0.43618,-0.83503 0.89502,-0.95664 l 2.86342,-0.77341 c 0.69234,-0.18648 1.14795,-0.71343 1.09444,-1.26308 l -0.28047,-2.81317 c -0.0535,-0.5513 -0.60478,-0.97935 -1.31822,-1.02473 l -2.96718,-0.19619 c -0.47187,-0.0292 -0.87881,-0.32755 -1.06367,-0.76207 -0.28375,-0.65829 -0.62261,-1.29875 -1.01987,-1.91003 -0.25782,-0.39563 -0.27891,-0.89666 -0.0422,-1.30686 l 1.48032,-2.57643 c 0.35835,-0.62101 0.30644,-1.3166 -0.12159,-1.66519 l -2.1873,-1.79007 c -0.42803,-0.34861 -1.11714,-0.26103 -1.65708,0.2108 z m -1.43496,6.84564 c 3.65469,3.40658 4.21567,9.07668 1.302,13.13348 -3.52495,4.90962 -10.55381,5.60683 -14.97539,1.48359 -3.65307,-3.40661 -4.21409,-9.07509 -1.302,-13.13349 3.52656,-4.90802 10.55542,-5.60525 14.97539,-1.48358 z"
       fill-rule="evenodd"
       id="path64" />
    <path
       fill="#ffffff"
       d="m 494.91942,180.40954 -2.24082,1.96353 c -0.35185,0.30966 -0.84799,0.38749 -1.2874,0.214 -0.67285,-0.26591 -1.36523,-0.47182 -2.06245,-0.61776 -0.46372,-0.0973 -0.83501,-0.43614 -0.95659,-0.89503 l -0.77832,-2.88285 c -0.18809,-0.69234 -0.71343,-1.14796 -1.2647,-1.09449 l -2.81153,0.28052 c -0.55127,0.0535 -0.97934,0.60478 -1.02636,1.31821 l -0.1978,2.98667 c -0.0292,0.47183 -0.32754,0.87881 -0.76207,1.06201 -0.65346,0.28213 -1.28579,0.61939 -1.89385,1.01016 -0.3956,0.25454 -0.89662,0.27564 -1.3036,0.0422 l -2.59424,-1.48848 c -0.62103,-0.35831 -1.315,-0.30645 -1.66521,0.12163 l -1.79004,2.1873 c -0.35025,0.42803 -0.26592,1.11714 0.20915,1.65708 l 1.96841,2.24888 c 0.30969,0.35513 0.38913,0.85127 0.21565,1.28746 -0.26592,0.66963 -0.47185,1.35874 -0.61939,2.0543 -0.0973,0.46049 -0.4394,0.83179 -0.89501,0.95664 l -2.88775,0.77826 c -0.69236,0.18809 -1.14797,0.71343 -1.09445,1.26474 l 0.28048,2.81153 c 0.0535,0.55127 0.60479,0.97935 1.31822,1.02637 l 2.98018,0.1978 c 0.47182,0.0292 0.8788,0.33076 1.06689,0.76529 0.28213,0.65507 0.61775,1.29389 1.01175,1.90033 0.25458,0.39722 0.27563,0.89824 0.0406,1.30523 l -1.48682,2.58291 c -0.35832,0.621 -0.30644,1.31499 0.12161,1.66518 l 2.18728,1.79004 c 0.42808,0.35025 1.11719,0.26592 1.65708,-0.20913 l 2.23433,-1.95869 c 0.35508,-0.30967 0.85127,-0.3875 1.28901,-0.21401 0.67451,0.26914 1.37011,0.4767 2.07217,0.62588 0.4605,0.0989 0.83178,0.4394 0.95664,0.89502 l 0.77344,2.86987 c 0.18808,0.69238 0.71342,1.148 1.2647,1.09448 l 2.81152,-0.28051 c 0.55132,-0.0535 0.97934,-0.60479 1.02636,-1.31822 l 0.19459,-2.95908 c 0.0308,-0.47182 0.33076,-0.87881 0.76533,-1.06529 0.66152,-0.28535 1.30522,-0.62421 1.91811,-1.02309 0.39561,-0.25459 0.89663,-0.27724 1.30361,-0.0438 l 2.5667,1.47548 c 0.621,0.35835 1.31499,0.30644 1.66519,-0.12158 l 1.79004,-2.1857 c 0.35024,-0.42964 0.26591,-1.11875 -0.20913,-1.65708 l -1.94898,-2.22783 c -0.30966,-0.35508 -0.38911,-0.85121 -0.21562,-1.2874 0.26914,-0.67934 0.47832,-1.37656 0.62749,-2.08189 0.0973,-0.46372 0.43618,-0.83505 0.89502,-0.95664 l 2.86342,-0.77343 c 0.69234,-0.18643 1.14795,-0.71338 1.09444,-1.26309 l -0.28047,-2.81313 c -0.0535,-0.55126 -0.60478,-0.97935 -1.31822,-1.02475 l -2.96718,-0.1962 c -0.47187,-0.0291 -0.87881,-0.32749 -1.06367,-0.76206 -0.28375,-0.6583 -0.62261,-1.29873 -1.01987,-1.91001 -0.25782,-0.39565 -0.27891,-0.89663 -0.0422,-1.30689 l 1.48032,-2.57641 c 0.35835,-0.62099 0.30644,-1.3166 -0.12159,-1.66519 l -2.1873,-1.79004 c -0.42803,-0.34863 -1.11714,-0.26108 -1.65708,0.2108 z m -1.43496,6.84561 c 3.65469,3.40659 4.21567,9.0767 1.302,13.13349 -3.52495,4.90962 -10.55381,5.60683 -14.97539,1.48359 -3.65307,-3.40659 -4.21409,-9.07509 -1.302,-13.13349 3.52656,-4.90801 10.55542,-5.60523 14.97539,-1.48359 z"
       fill-rule="evenodd"
       id="path66"
       style="stroke-width:0.8" />
    <path
       stroke="#1a0404"
       stroke-width="0.8"
       stroke-linejoin="round"
       stroke-linecap="butt"
       d="m 494.91942,180.40954 -2.24082,1.96353 c -0.35185,0.30966 -0.84799,0.38749 -1.2874,0.214 -0.67285,-0.26591 -1.36523,-0.47182 -2.06245,-0.61776 -0.46372,-0.0973 -0.83501,-0.43614 -0.95659,-0.89503 l -0.77832,-2.88285 c -0.18809,-0.69234 -0.71343,-1.14796 -1.2647,-1.09449 l -2.81153,0.28052 c -0.55127,0.0535 -0.97934,0.60478 -1.02636,1.31821 l -0.1978,2.98667 c -0.0292,0.47183 -0.32754,0.87881 -0.76207,1.06201 -0.65346,0.28213 -1.28579,0.61939 -1.89385,1.01016 -0.3956,0.25454 -0.89662,0.27564 -1.3036,0.0422 l -2.59424,-1.48848 c -0.62103,-0.35831 -1.315,-0.30645 -1.66521,0.12163 l -1.79004,2.1873 c -0.35025,0.42803 -0.26592,1.11714 0.20915,1.65708 l 1.96841,2.24888 c 0.30969,0.35513 0.38913,0.85127 0.21565,1.28746 -0.26592,0.66963 -0.47185,1.35874 -0.61939,2.0543 -0.0973,0.46049 -0.4394,0.83179 -0.89501,0.95664 l -2.88775,0.77826 c -0.69236,0.18809 -1.14797,0.71343 -1.09445,1.26474 l 0.28048,2.81153 c 0.0535,0.55127 0.60479,0.97935 1.31822,1.02637 l 2.98018,0.1978 c 0.47182,0.0292 0.8788,0.33076 1.06689,0.76529 0.28213,0.65507 0.61775,1.29389 1.01175,1.90033 0.25458,0.39722 0.27563,0.89824 0.0406,1.30523 l -1.48682,2.58291 c -0.35832,0.621 -0.30644,1.31499 0.12161,1.66518 l 2.18728,1.79004 c 0.42808,0.35025 1.11719,0.26592 1.65708,-0.20913 l 2.23433,-1.95869 c 0.35508,-0.30967 0.85127,-0.3875 1.28901,-0.21401 0.67451,0.26914 1.37011,0.4767 2.07217,0.62588 0.4605,0.0989 0.83178,0.4394 0.95664,0.89502 l 0.77344,2.86987 c 0.18808,0.69238 0.71342,1.148 1.2647,1.09448 l 2.81152,-0.28051 c 0.55132,-0.0535 0.97934,-0.60479 1.02636,-1.31822 l 0.19459,-2.95908 c 0.0308,-0.47182 0.33076,-0.87881 0.76533,-1.06529 0.66152,-0.28535 1.30522,-0.62421 1.91811,-1.02309 0.39561,-0.25459 0.89663,-0.27724 1.30361,-0.0438 l 2.5667,1.47548 c 0.621,0.35835 1.31499,0.30644 1.66519,-0.12158 l 1.79004,-2.1857 c 0.35024,-0.42964 0.26591,-1.11875 -0.20913,-1.65708 l -1.94898,-2.22783 c -0.30966,-0.35508 -0.38911,-0.85121 -0.21562,-1.2874 0.26914,-0.67934 0.47832,-1.37656 0.62749,-2.08189 0.0973,-0.46372 0.43618,-0.83505 0.89502,-0.95664 l 2.86342,-0.77343 c 0.69234,-0.18643 1.14795,-0.71338 1.09444,-1.26309 l -0.28047,-2.81313 c -0.0535,-0.55126 -0.60478,-0.97935 -1.31822,-1.02475 l -2.96718,-0.1962 c -0.47187,-0.0291 -0.87881,-0.32749 -1.06367,-0.76206 -0.28375,-0.6583 -0.62261,-1.29873 -1.01987,-1.91001 -0.25782,-0.39565 -0.27891,-0.89663 -0.0422,-1.30689 l 1.48032,-2.57641 c 0.35835,-0.62099 0.30644,-1.3166 -0.12159,-1.66519 l -2.1873,-1.79004 c -0.42803,-0.34863 -1.11714,-0.26108 -1.65708,0.2108 z m -1.43496,6.84561 c 3.65469,3.40659 4.21567,9.0767 1.302,13.13349 -3.52495,4.90962 -10.55381,5.60683 -14.97539,1.48359 -3.65307,-3.40659 -4.21409,-9.07509 -1.302,-13.13349 3.52656,-4.90801 10.55542,-5.60523 14.97539,-1.48359 z"
       fill-rule="evenodd"
       id="path68" />
    <path
       fill="#ffffff"
       d="m 494.91942,232.41586 -2.24082,1.96353 c -0.35185,0.30966 -0.84799,0.38749 -1.2874,0.214 -0.67285,-0.26591 -1.36523,-0.47182 -2.06245,-0.61776 -0.46372,-0.0973 -0.83501,-0.43614 -0.95659,-0.89503 l -0.77832,-2.88285 c -0.18809,-0.69234 -0.71343,-1.14796 -1.2647,-1.09449 l -2.81153,0.28052 c -0.55127,0.0535 -0.97934,0.60478 -1.02636,1.31821 l -0.1978,2.98667 c -0.0292,0.47183 -0.32754,0.87881 -0.76207,1.06201 -0.65346,0.28213 -1.28579,0.61939 -1.89385,1.01016 -0.3956,0.25454 -0.89662,0.27564 -1.3036,0.0422 l -2.59424,-1.48848 c -0.62103,-0.35831 -1.315,-0.30645 -1.66521,0.12163 l -1.79004,2.1873 c -0.35025,0.42803 -0.26592,1.11714 0.20915,1.65708 l 1.96841,2.24888 c 0.30969,0.35513 0.38913,0.85127 0.21565,1.28745 -0.26592,0.66963 -0.47185,1.35874 -0.61939,2.0543 -0.0973,0.46049 -0.4394,0.83179 -0.89501,0.95664 l -2.88775,0.77827 c -0.69236,0.18809 -1.14797,0.71343 -1.09445,1.26474 l 0.28048,2.81153 c 0.0535,0.55127 0.60479,0.97934 1.31822,1.02637 l 2.98018,0.1978 c 0.47182,0.0292 0.8788,0.33076 1.06689,0.76529 0.28213,0.65507 0.61775,1.29389 1.01175,1.90033 0.25458,0.39722 0.27563,0.89824 0.0406,1.30523 l -1.48682,2.58291 c -0.35832,0.621 -0.30644,1.31499 0.12161,1.66518 l 2.18728,1.79004 c 0.42808,0.35025 1.11719,0.26592 1.65708,-0.20913 l 2.23433,-1.95869 c 0.35508,-0.30967 0.85127,-0.3875 1.28901,-0.21401 0.67451,0.26914 1.37011,0.4767 2.07217,0.62588 0.4605,0.0989 0.83178,0.4394 0.95664,0.89502 l 0.77344,2.86987 c 0.18808,0.69238 0.71342,1.148 1.2647,1.09448 l 2.81152,-0.28051 c 0.55132,-0.0535 0.97934,-0.60479 1.02636,-1.31822 l 0.19459,-2.95908 c 0.0308,-0.47182 0.33076,-0.87881 0.76533,-1.06529 0.66152,-0.28535 1.30522,-0.62421 1.91811,-1.02309 0.39561,-0.25459 0.89663,-0.27724 1.30361,-0.0438 l 2.5667,1.47548 c 0.621,0.35835 1.31499,0.30644 1.66519,-0.12158 l 1.79004,-2.1857 c 0.35024,-0.42964 0.26591,-1.11875 -0.20913,-1.65708 l -1.94898,-2.22783 c -0.30966,-0.35508 -0.38911,-0.85121 -0.21562,-1.2874 0.26914,-0.67934 0.47832,-1.37656 0.62749,-2.08189 0.0973,-0.46372 0.43618,-0.83505 0.89502,-0.95664 l 2.86342,-0.77343 c 0.69234,-0.18643 1.14795,-0.71338 1.09444,-1.26309 l -0.28047,-2.81313 c -0.0535,-0.55127 -0.60478,-0.97935 -1.31822,-1.02475 l -2.96718,-0.19619 c -0.47187,-0.0291 -0.87881,-0.32749 -1.06367,-0.76207 -0.28375,-0.65829 -0.62261,-1.29872 -1.01987,-1.91001 -0.25782,-0.39564 -0.27891,-0.89663 -0.0422,-1.30689 l 1.48032,-2.57641 c 0.35835,-0.62099 0.30644,-1.3166 -0.12159,-1.66519 l -2.1873,-1.79003 c -0.42803,-0.34864 -1.11714,-0.26108 -1.65708,0.2108 z m -1.43496,6.84561 c 3.65469,3.40659 4.21567,9.07671 1.302,13.13349 -3.52495,4.90963 -10.55381,5.60683 -14.97539,1.48359 -3.65307,-3.40659 -4.21409,-9.07509 -1.302,-13.13349 3.52656,-4.90801 10.55542,-5.60523 14.97539,-1.48359 z"
       fill-rule="evenodd"
       id="path70"
       style="stroke-width:0.8" />
    <path
       stroke="#1a0404"
       stroke-width="0.8"
       stroke-linejoin="round"
       stroke-linecap="butt"
       d="m 494.91942,232.41586 -2.24082,1.96353 c -0.35185,0.30966 -0.84799,0.38749 -1.2874,0.214 -0.67285,-0.26591 -1.36523,-0.47182 -2.06245,-0.61776 -0.46372,-0.0973 -0.83501,-0.43614 -0.95659,-0.89503 l -0.77832,-2.88285 c -0.18809,-0.69234 -0.71343,-1.14796 -1.2647,-1.09449 l -2.81153,0.28052 c -0.55127,0.0535 -0.97934,0.60478 -1.02636,1.31821 l -0.1978,2.98667 c -0.0292,0.47183 -0.32754,0.87881 -0.76207,1.06201 -0.65346,0.28213 -1.28579,0.61939 -1.89385,1.01016 -0.3956,0.25454 -0.89662,0.27564 -1.3036,0.0422 l -2.59424,-1.48848 c -0.62103,-0.35831 -1.315,-0.30645 -1.66521,0.12163 l -1.79004,2.1873 c -0.35025,0.42803 -0.26592,1.11714 0.20915,1.65708 l 1.96841,2.24888 c 0.30969,0.35513 0.38913,0.85127 0.21565,1.28745 -0.26592,0.66963 -0.47185,1.35874 -0.61939,2.0543 -0.0973,0.46049 -0.4394,0.83179 -0.89501,0.95664 l -2.88775,0.77827 c -0.69236,0.18809 -1.14797,0.71343 -1.09445,1.26474 l 0.28048,2.81153 c 0.0535,0.55127 0.60479,0.97934 1.31822,1.02637 l 2.98018,0.1978 c 0.47182,0.0292 0.8788,0.33076 1.06689,0.76529 0.28213,0.65507 0.61775,1.29389 1.01175,1.90033 0.25458,0.39722 0.27563,0.89824 0.0406,1.30523 l -1.48682,2.58291 c -0.35832,0.621 -0.30644,1.31499 0.12161,1.66518 l 2.18728,1.79004 c 0.42808,0.35025 1.11719,0.26592 1.65708,-0.20913 l 2.23433,-1.95869 c 0.35508,-0.30967 0.85127,-0.3875 1.28901,-0.21401 0.67451,0.26914 1.37011,0.4767 2.07217,0.62588 0.4605,0.0989 0.83178,0.4394 0.95664,0.89502 l 0.77344,2.86987 c 0.18808,0.69238 0.71342,1.148 1.2647,1.09448 l 2.81152,-0.28051 c 0.55132,-0.0535 0.97934,-0.60479 1.02636,-1.31822 l 0.19459,-2.95908 c 0.0308,-0.47182 0.33076,-0.87881 0.76533,-1.06529 0.66152,-0.28535 1.30522,-0.62421 1.91811,-1.02309 0.39561,-0.25459 0.89663,-0.27724 1.30361,-0.0438 l 2.5667,1.47548 c 0.621,0.35835 1.31499,0.30644 1.66519,-0.12158 l 1.79004,-2.1857 c 0.35024,-0.42964 0.26591,-1.11875 -0.20913,-1.65708 l -1.94898,-2.22783 c -0.30966,-0.35508 -0.38911,-0.85121 -0.21562,-1.2874 0.26914,-0.67934 0.47832,-1.37656 0.62749,-2.08189 0.0973,-0.46372 0.43618,-0.83505 0.89502,-0.95664 l 2.86342,-0.77343 c 0.69234,-0.18643 1.14795,-0.71338 1.09444,-1.26309 l -0.28047,-2.81313 c -0.0535,-0.55127 -0.60478,-0.97935 -1.31822,-1.02475 l -2.96718,-0.19619 c -0.47187,-0.0291 -0.87881,-0.32749 -1.06367,-0.76207 -0.28375,-0.65829 -0.62261,-1.29872 -1.01987,-1.91001 -0.25782,-0.39564 -0.27891,-0.89663 -0.0422,-1.30689 l 1.48032,-2.57641 c 0.35835,-0.62099 0.30644,-1.3166 -0.12159,-1.66519 l -2.1873,-1.79003 c -0.42803,-0.34864 -1.11714,-0.26108 -1.65708,0.2108 z m -1.43496,6.84561 c 3.65469,3.40659 4.21567,9.07671 1.302,13.13349 -3.52495,4.90963 -10.55381,5.60683 -14.97539,1.48359 -3.65307,-3.40659 -4.21409,-9.07509 -1.302,-13.13349 3.52656,-4.90801 10.55542,-5.60523 14.97539,-1.48359 z"
       fill-rule="evenodd"
       id="path72" />
    <path
       fill="#f72a30"
       d="m 649.53654,123.74768 v 0 c 0,-3.67852 2.98203,-6.66052 6.6605,-6.66052 h 26.64121 v 0 c 1.76651,0 3.4606,0.70172 4.70972,1.95082 1.24907,1.24906 1.95078,2.94322 1.95078,4.7097 v 89.60811 c 0,3.67847 -2.98198,6.6605 -6.6605,6.6605 h -26.64121 c -3.67847,0 -6.6605,-2.98203 -6.6605,-6.6605 z"
       fill-rule="evenodd"
       id="path78"
       style="stroke-width:0.8" />
    <path
       stroke="#1a0404"
       stroke-width="0.8"
       stroke-linejoin="round"
       stroke-linecap="butt"
       d="m 649.53654,123.74768 v 0 c 0,-3.67852 2.98203,-6.66052 6.6605,-6.66052 h 26.64121 v 0 c 1.76651,0 3.4606,0.70172 4.70972,1.95082 1.24907,1.24906 1.95078,2.94322 1.95078,4.7097 v 89.60811 c 0,3.67847 -2.98198,6.6605 -6.6605,6.6605 h -26.64121 c -3.67847,0 -6.6605,-2.98203 -6.6605,-6.6605 z"
       fill-rule="evenodd"
       id="path80" />
    <path
       fill="#ffffff"
       d="m 655.97122,175.56642 v 0 c 0,-1.3668 6.06475,-2.47486 13.54605,-2.47486 7.4813,0 13.54604,1.10806 13.54604,2.47486 v 9.89946 c 0,1.3668 -6.06474,2.47486 -13.54604,2.47486 -7.4813,0 -13.54605,-1.10806 -13.54605,-2.47486 z"
       fill-rule="evenodd"
       id="path86"
       style="stroke-width:0.8" />
    <path
       fill="#000000"
       fill-opacity="0"
       d="m 683.06331,175.56642 v 0 c 0,1.36685 -6.06474,2.47485 -13.54605,2.47485 -7.48129,0 -13.54604,-1.108 -13.54604,-2.47485"
       fill-rule="evenodd"
       id="path88"
       style="stroke-width:0.8" />
    <path
       fill="#000000"
       fill-opacity="0"
       d="m 655.97122,175.56642 v 0 c 0,-1.3668 6.06475,-2.47486 13.54605,-2.47486 7.4813,0 13.54604,1.10806 13.54604,2.47486 v 9.89946 c 0,1.3668 -6.06474,2.47486 -13.54604,2.47486 -7.4813,0 -13.54605,-1.10806 -13.54605,-2.47486 z"
       fill-rule="evenodd"
       id="path90"
       style="stroke-width:0.8" />
    <path
       stroke="#1a0404"
       stroke-width="0.8"
       stroke-linejoin="round"
       stroke-linecap="butt"
       d="m 683.06331,175.56642 v 0 c 0,1.36685 -6.06474,2.47485 -13.54605,2.47485 -7.48129,0 -13.54604,-1.108 -13.54604,-2.47485"
       fill-rule="evenodd"
       id="path92" />
    <path
       stroke="#1a0404"
       stroke-width="0.8"
       stroke-linejoin="round"
       stroke-linecap="butt"
       d="m 655.97122,175.56642 v 0 c 0,-1.3668 6.06475,-2.47486 13.54605,-2.47486 7.4813,0 13.54604,1.10806 13.54604,2.47486 v 9.89946 c 0,1.3668 -6.06474,2.47486 -13.54604,2.47486 -7.4813,0 -13.54605,-1.10806 -13.54605,-2.47486 z"
       fill-rule="evenodd"
       id="path94" />
    <path
       fill="#ffffff"
       d="m 655.97122,163.60199 v 0 c 0,-1.3668 6.06475,-2.47485 13.54605,-2.47485 7.4813,0 13.54604,1.10805 13.54604,2.47485 v 9.89947 c 0,1.36681 -6.06474,2.47486 -13.54604,2.47486 -7.4813,0 -13.54605,-1.10805 -13.54605,-2.47486 z"
       fill-rule="evenodd"
       id="path96"
       style="stroke-width:0.8" />
    <path
       fill="#000000"
       fill-opacity="0"
       d="m 683.06331,163.60199 v 0 c 0,1.36685 -6.06474,2.47486 -13.54605,2.47486 -7.48129,0 -13.54604,-1.10801 -13.54604,-2.47486"
       fill-rule="evenodd"
       id="path98"
       style="stroke-width:0.8" />
    <path
       fill="#000000"
       fill-opacity="0"
       d="m 655.97122,163.60199 v 0 c 0,-1.3668 6.06475,-2.47485 13.54605,-2.47485 7.4813,0 13.54604,1.10805 13.54604,2.47485 v 9.89947 c 0,1.36681 -6.06474,2.47486 -13.54604,2.47486 -7.4813,0 -13.54605,-1.10805 -13.54605,-2.47486 z"
       fill-rule="evenodd"
       id="path100"
       style="stroke-width:0.8" />
    <path
       stroke="#1a0404"
       stroke-width="0.8"
       stroke-linejoin="round"
       stroke-linecap="butt"
       d="m 683.06331,163.60199 v 0 c 0,1.36685 -6.06474,2.47486 -13.54605,2.47486 -7.48129,0 -13.54604,-1.10801 -13.54604,-2.47486"
       fill-rule="evenodd"
       id="path102" />
    <path
       stroke="#1a0404"
       stroke-width="0.8"
       stroke-linejoin="round"
       stroke-linecap="butt"
       d="m 655.97122,163.60199 v 0 c 0,-1.3668 6.06475,-2.47485 13.54605,-2.47485 7.4813,0 13.54604,1.10805 13.54604,2.47485 v 9.89947 c 0,1.36681 -6.06474,2.47486 -13.54604,2.47486 -7.4813,0 -13.54605,-1.10805 -13.54605,-2.47486 z"
       fill-rule="evenodd"
       id="path104" />
    <path
       fill="#ffffff"
       d="m 655.97122,151.63759 v 0 c 0,-1.3668 6.06475,-2.47486 13.54605,-2.47486 7.4813,0 13.54604,1.10806 13.54604,2.47486 v 9.89946 c 0,1.36685 -6.06474,2.47486 -13.54604,2.47486 -7.4813,0 -13.54605,-1.10801 -13.54605,-2.47486 z"
       fill-rule="evenodd"
       id="path106"
       style="stroke-width:0.8" />
    <path
       fill="#000000"
       fill-opacity="0"
       d="m 683.06331,151.63759 v 0 c 0,1.36684 -6.06474,2.4749 -13.54605,2.4749 -7.48129,0 -13.54604,-1.10806 -13.54604,-2.4749"
       fill-rule="evenodd"
       id="path108"
       style="stroke-width:0.8" />
    <path
       fill="#000000"
       fill-opacity="0"
       d="m 655.97122,151.63759 v 0 c 0,-1.3668 6.06475,-2.47486 13.54605,-2.47486 7.4813,0 13.54604,1.10806 13.54604,2.47486 v 9.89946 c 0,1.36685 -6.06474,2.47486 -13.54604,2.47486 -7.4813,0 -13.54605,-1.10801 -13.54605,-2.47486 z"
       fill-rule="evenodd"
       id="path110"
       style="stroke-width:0.8" />
    <path
       stroke="#1a0404"
       stroke-width="0.8"
       stroke-linejoin="round"
       stroke-linecap="butt"
       d="m 683.06331,151.63759 v 0 c 0,1.36684 -6.06474,2.4749 -13.54605,2.4749 -7.48129,0 -13.54604,-1.10806 -13.54604,-2.4749"
       fill-rule="evenodd"
       id="path112" />
    <path
       stroke="#1a0404"
       stroke-width="0.8"
       stroke-linejoin="round"
       stroke-linecap="butt"
       d="m 655.97122,151.63759 v 0 c 0,-1.3668 6.06475,-2.47486 13.54605,-2.47486 7.4813,0 13.54604,1.10806 13.54604,2.47486 v 9.89946 c 0,1.36685 -6.06474,2.47486 -13.54604,2.47486 -7.4813,0 -13.54605,-1.10801 -13.54605,-2.47486 z"
       fill-rule="evenodd"
       id="path114" />
    <path
       fill="#000000"
       fill-opacity="0"
       d="m 506.62006,142.54858 142.91651,26.00317"
       fill-rule="evenodd"
       id="path116"
       style="stroke-width:0.8" />
    <path
       stroke="#1a0404"
       stroke-width="2.4"
       stroke-linejoin="round"
       stroke-linecap="butt"
       d="m 506.62006,142.54858 128.74912,23.42544"
       fill-rule="evenodd"
       id="path118" />
    <path
       fill="#1a0404"
       stroke="#1a0404"
       stroke-width="2.4"
       stroke-linecap="butt"
       d="m 634.65955,169.87418 11.42514,-1.95049 -10.0059,-5.84981 z"
       fill-rule="evenodd"
       id="path120" />
    <path
       fill="#000000"
       fill-opacity="0"
       d="m 544.85622,101.83046 h 66.44415 v 62.05986 h -66.44415 z"
       fill-rule="evenodd"
       id="path122"
       style="stroke-width:0.8" />
    <path
       fill="#34b233"
       d="m 564.87518,134.09447 3.725,-3.72499 6.375,6.26249 14.0625,-13.9875 3.75,3.725 -17.8125,17.725 z"
       fill-rule="nonzero"
       id="path124"
       style="stroke-width:0.8" />
  </g>
  <rect
     style="fill:#000000;fill-opacity:0.2;fill-rule:evenodd;stroke:none;stroke-width:0.667898;stroke-opacity:1"
     id="rect405"
     width="4.9110107"
     height="301.27362"
     x="367.26773"
     y="8.5397224" />
  <text
     xml:space="preserve"
     style="font-style:normal;font-variant:normal;font-weight:normal;font-stretch:normal;font-size:24px;line-height:1.25;font-family:Inter;-inkscape-font-specification:'Inter, Normal';font-variant-ligatures:normal;font-variant-caps:normal;font-variant-numeric:normal;font-variant-east-asian:normal;fill:#000000;fill-opacity:1;stroke:none"
     x="82.641693"
     y="35.109867"
     id="text2312"><tspan
       sodipodi:role="line"
       id="tspan2310"
       x="82.641693"
       y="35.109867"
       style="font-style:normal;font-variant:normal;font-weight:normal;font-stretch:normal;font-size:24px;font-family:Inter;-inkscape-font-specification:'Inter, Normal';font-variant-ligatures:normal;font-variant-caps:normal;font-variant-numeric:normal;font-variant-east-asian:normal">Without Spilling</tspan></text>
  <text
     xml:space="preserve"
     style="font-style:normal;font-variant:normal;font-weight:normal;font-stretch:normal;font-size:24px;line-height:1.25;font-family:Inter;-inkscape-font-specification:'Inter, Normal';font-variant-ligatures:normal;font-variant-caps:normal;font-variant-numeric:normal;font-variant-east-asian:normal;fill:#000000;fill-opacity:1;stroke:none"
     x="499.31085"
     y="35.109867"
     id="text2312-7"><tspan
       sodipodi:role="line"
       x="499.31085"
       y="35.109867"
       style="font-style:normal;font-variant:normal;font-weight:normal;font-stretch:normal;font-size:24px;font-family:Inter;-inkscape-font-specification:'Inter, Normal';font-variant-ligatures:normal;font-variant-caps:normal;font-variant-numeric:normal;font-variant-east-asian:normal"
       id="tspan9273">With Spilling</tspan></text>
  <text
     xml:space="preserve"
     style="font-style:normal;font-variant:normal;font-weight:normal;font-stretch:normal;font-size:16px;line-height:1.25;font-family:Inter;-inkscape-font-specification:'Inter, Normal';font-variant-ligatures:normal;font-variant-caps:normal;font-variant-numeric:normal;font-variant-east-asian:normal;fill:#000000;fill-opacity:1;stroke:none"
     x="32.991188"
     y="291.88705"
     id="text13487"><tspan
       sodipodi:role="line"
       id="tspan13485"
       x="32.991188"
       y="291.88705"
       style="font-style:normal;font-variant:normal;font-weight:normal;font-stretch:normal;font-size:16px;font-family:Inter;-inkscape-font-specification:'Inter, Normal';font-variant-ligatures:normal;font-variant-caps:normal;font-variant-numeric:normal;font-variant-east-asian:normal">Working Set</tspan></text>
  <text
     xml:space="preserve"
     style="font-style:normal;font-variant:normal;font-weight:normal;font-stretch:normal;font-size:16px;line-height:1.25;font-family:Inter;-inkscape-font-specification:'Inter, Normal';font-variant-ligatures:normal;font-variant-caps:normal;font-variant-numeric:normal;font-variant-east-asian:normal;fill:#000000;fill-opacity:1;stroke:none"
     x="403.5141"
     y="291.88705"
     id="text13487-6"><tspan
       sodipodi:role="line"
       x="403.5141"
       y="291.88705"
       style="font-style:normal;font-variant:normal;font-weight:normal;font-stretch:normal;font-size:16px;font-family:Inter;-inkscape-font-specification:'Inter, Normal';font-variant-ligatures:normal;font-variant-caps:normal;font-variant-numeric:normal;font-variant-east-asian:normal"
       id="tspan33551">Spilled Working Set</tspan></text>
  <text
     xml:space="preserve"
     style="font-style:normal;font-variant:normal;font-weight:normal;font-stretch:normal;font-size:16px;line-height:1.25;font-family:Inter;-inkscape-font-specification:'Inter, Normal';font-variant-ligatures:normal;font-variant-caps:normal;font-variant-numeric:normal;font-variant-east-asian:normal;fill:#000000;fill-opacity:1;stroke:none"
     x="209.44847"
     y="292.07455"
     id="text13487-1"><tspan
       sodipodi:role="line"
       x="209.44847"
       y="292.07455"
       style="font-style:normal;font-variant:normal;font-weight:normal;font-stretch:normal;font-size:16px;font-family:Inter;-inkscape-font-specification:'Inter, Normal';font-variant-ligatures:normal;font-variant-caps:normal;font-variant-numeric:normal;font-variant-east-asian:normal"
       id="tspan31528">Main Memory</tspan></text>
  <text
     xml:space="preserve"
     style="font-style:normal;font-variant:normal;font-weight:normal;font-stretch:normal;font-size:16px;line-height:1.25;font-family:Inter;-inkscape-font-specification:'Inter, Normal';font-variant-ligatures:normal;font-variant-caps:normal;font-variant-numeric:normal;font-variant-east-asian:normal;fill:#000000;fill-opacity:1;stroke:none"
     x="607.92407"
     y="291.39847"
     id="text13487-1-9"><tspan
       sodipodi:role="line"
       x="607.92407"
       y="291.39847"
       style="font-style:normal;font-variant:normal;font-weight:normal;font-stretch:normal;font-size:16px;font-family:Inter;-inkscape-font-specification:'Inter, Normal';font-variant-ligatures:normal;font-variant-caps:normal;font-variant-numeric:normal;font-variant-east-asian:normal"
       id="tspan31528-3">Main Memory</tspan></text>
  <path
     fill="#000000"
     fill-opacity="0"
     d="M 296.91984,0 H 450.27413 V 15.282622 H 296.91984 Z"
     fill-rule="evenodd"
     id="path1172-1"
     style="stroke-width:0.480289" />
</svg>
